<?xml version="1.0" encoding="UTF-8"?>
<svg id="Layer_2" data-name="Layer 2" xmlns="http://www.w3.org/2000/svg" viewBox="0 0 105.77 68.33">
  <defs>
    <style>
      .cls-1 {
        fill: #006fee;
      }
    </style>
  </defs>
  <g id="Layer_1-2" data-name="Layer 1">
    <g>
      <path class="cls-1" d="M0,5.33h10.8c1.28,0,2.49.6,3.62,1.8,1.14,1.2,1.71,2.42,1.71,3.67v20.45c0,.53-.24,1.08-.71,1.66-.47.58-1.04,1.01-1.7,1.3.76.29,1.35.67,1.77,1.15.43.48.64,1.13.64,1.94v20.38c0,1.3-.53,2.51-1.6,3.64-1.07,1.13-2.26,1.69-3.58,1.69H0V5.33ZM5.33,31.25h5.47V10.8h-5.47v20.45ZM5.33,57.67h5.47v-21.1h-5.47v21.1Z"/>
      <path class="cls-1" d="M24.08,1.55c1.03-1.03,2.29-1.55,3.78-1.55h1.87v5.33c-1.25,0-1.87.79-1.87,2.38v52.92c0,1.58.62,2.38,1.87,2.38v5.33h-1.87c-1.39,0-2.63-.46-3.71-1.37-1.08-.91-1.62-2.23-1.62-3.96V5.33c0-1.49.52-2.75,1.55-3.78Z"/>
      <path class="cls-1" d="M50.9,5.33l-10.87,57.67h-5.33L45.5,5.33h5.4Z"/>
      <path class="cls-1" d="M71.13,63h-5.4L54.93,5.33h5.33l10.87,57.67Z"/>
      <path class="cls-1" d="M83.16,63c0,1.73-.6,3.1-1.8,4.1-1.01.82-2.21,1.22-3.6,1.22h-1.8v-5.33c1.25,0,1.87-.79,1.87-2.38V7.7c0-1.58-.62-2.38-1.87-2.38V0h1.8c1.49,0,2.76.53,3.82,1.58,1.06,1.06,1.58,2.3,1.58,3.74v57.67Z"/>
      <path class="cls-1" d="M89.56,63v-25.7c0-.82.21-1.46.64-1.94.43-.48,1.02-.86,1.78-1.15-.66-.29-1.23-.72-1.71-1.3-.47-.58-.71-1.13-.71-1.66V10.8c0-1.25.57-2.47,1.7-3.67,1.14-1.2,2.34-1.8,3.62-1.8h10.87v57.67h-5.33v-26.42h-5.54v26.42h-5.33ZM100.44,10.8h-5.54v20.45h5.54V10.8Z"/>
    </g>
  </g>
</svg>
